<svg width="24" height="24" viewBox="0 0 24 24" fill="none" xmlns="http://www.w3.org/2000/svg">
<path d="M5.3191 14.5044L4.48366 17.6232L1.43016 17.6878C0.517613 15.9953 0 14.0587 0 12.0009C0 10.0109 0.483955 8.13432 1.3418 6.48196H1.34246L4.06093 6.98036L5.25179 9.68252C5.00254 10.4092 4.86669 11.1892 4.86669 12.0009C4.86679 12.8818 5.02636 13.7258 5.3191 14.5044Z" fill="#FBBB00"/>
<path d="M23.7903 9.7588C23.9282 10.4847 24 11.2344 24 12.0006C24 12.8598 23.9097 13.6979 23.7376 14.5062C23.1534 17.2571 21.627 19.6592 19.5124 21.359L19.5118 21.3584L16.0877 21.1836L15.6031 18.1585C17.0062 17.3356 18.1027 16.0478 18.6803 14.5062H12.2634V9.7588H18.774H23.7903Z" fill="#518EF8"/>
<path d="M19.5137 21.358L19.5144 21.3586C17.4578 23.0117 14.8454 24.0007 12.0016 24.0007C7.43152 24.0007 3.45821 21.4463 1.4313 17.6873L5.32024 14.5039C6.33367 17.2086 8.94278 19.134 12.0016 19.134C13.3163 19.134 14.5481 18.7785 15.605 18.1581L19.5137 21.358Z" fill="#28B446"/>
<path d="M19.6593 2.76273L15.7717 5.94547C14.6778 5.26172 13.3848 4.86674 11.9995 4.86674C8.87145 4.86674 6.21354 6.88042 5.25088 9.6821L1.34151 6.48155H1.34085C3.33808 2.63086 7.36151 0 11.9995 0C14.9112 0 17.581 1.03719 19.6593 2.76273Z" fill="#F14336"/>
</svg>
